<svg xmlns="http://www.w3.org/2000/svg" width="20" height="20" viewBox="0 0 20 20">
    <path fill="#2CBB8F" fill-rule="evenodd" d="M10 1c1.644 0 3.166.411 4.565 1.233a8.53 8.53 0 0 1 3.202 3.202A8.851 8.851 0 0 1 19 10a8.851 8.851 0 0 1-1.233 4.565 8.53 8.53 0 0 1-3.202 3.202A8.851 8.851 0 0 1 10 19a8.851 8.851 0 0 1-4.565-1.233 8.691 8.691 0 0 1-3.202-3.224A8.812 8.812 0 0 1 1 10c0-1.63.411-3.144 1.233-4.543a8.858 8.858 0 0 1 3.224-3.224A8.812 8.812 0 0 1 10 1zm.476 4.478v4.738l4.046 2.402-.671 1.146-4.738-2.877V5.478h1.363z"/>
</svg>
