<svg xmlns="http://www.w3.org/2000/svg" width="100" height="100" viewBox="0 0 100 100">
    <g fill="none" fill-rule="evenodd">
        <circle cx="50" cy="50" r="50" fill="#D8D8D8" opacity=".39"/>
        <path fill="#919191" fill-rule="nonzero" d="M57.5 45.667h-1.25V43.19c0-3.417-2.8-6.19-6.25-6.19s-6.25 2.773-6.25 6.19v2.477H42.5c-1.375 0-2.5 1.114-2.5 2.476v12.38C40 61.887 41.125 63 42.5 63h15c1.375 0 2.5-1.114 2.5-2.476V48.143c0-1.362-1.125-2.476-2.5-2.476zM49.5 57a2.507 2.507 0 0 1-2.5-2.5c0-1.375 1.125-2.5 2.5-2.5s2.5 1.125 2.5 2.5-1.125 2.5-2.5 2.5zM54 45h-8v-2.353C46 40.635 47.794 39 50 39s4 1.635 4 3.647V45z"/>
    </g>
</svg>
