<svg xmlns="http://www.w3.org/2000/svg" width="1054" height="800" viewBox="0 0 1054 800">
    <g fill="none" fill-rule="evenodd" opacity=".373">
        <rect width="1053" height="799" x=".5" y=".5" stroke="#A8A8A8" rx="8"/>
        <path stroke="#A8A8A8" d="M.5 7.172v37.656c0 3.694 2.735 6.672 6.088 6.672h1040.824c3.353 0 6.088-2.978 6.088-6.672V7.172c0-3.694-2.735-6.672-6.088-6.672H6.588C3.235.5.5 3.478.5 7.172z"/>
        <g transform="translate(0 17)">
            <path stroke="#B7B3B3" d="M.5 34.5v67h1053v-67H198.708c-2.98 0-6.068-2.284-6.941-5.136l-6.895-22.5c-.905-2.956-4.186-5.379-7.283-5.379H50.367c-3.097 0-6.412 2.421-7.352 5.365l-7.19 22.537c-.906 2.835-4.022 5.113-6.99 5.113H.5z"/>
            <rect width="725" height="35" x="132.5" y="51.5" stroke="#B7B3B3" rx="4"/>
            <g transform="translate(9 49)">
                <rect width="113.732" height="34.854" x=".5" y="2.573" stroke="#A8A8A8" rx="4"/>
                <path stroke="#A8A8A8" d="M57.688 2.073V37.32"/>
                <text fill="#959595" font-family="HiraKakuProN-W3, Hiragino Kaku Gothic ProN" font-size="20" font-weight="300">
                    <tspan x="17.415" y="28.268">◀</tspan>
                </text>
                <text fill="#959595" font-family="HiraKakuProN-W3, Hiragino Kaku Gothic ProN" font-size="20" font-weight="300" transform="rotate(-180 86.049 15.024)">
                    <tspan x="75.805" y="18.024">◀</tspan>
                </text>
            </g>
            <path stroke="#A8A8A8" d="M863.5 55.014V83.11c0 1.975.97 3.514 2.03 3.514h178.94c1.06 0 2.03-1.539 2.03-3.514V55.014c0-1.976-.97-3.514-2.03-3.514H865.53c-1.06 0-2.03 1.538-2.03 3.514z"/>
        </g>
        <text fill="#A7A7A7" font-family="HelveticaNeue, Helvetica Neue" font-size="28" transform="translate(164 16)">
            <tspan x="0" y="27">×</tspan>
        </text>
    </g>
</svg>
