<svg xmlns="http://www.w3.org/2000/svg" width="100" height="100" viewBox="0 0 100 100">
    <g fill="none" fill-rule="evenodd">
        <circle cx="50" cy="50" r="50" fill="#D8D8D8" opacity=".39"/>
        <path fill="#919191" fill-rule="nonzero" d="M51.856 63.54l-1.523-4.41a4.032 4.032 0 0 0 2.673-1.646.13.13 0 0 1 .106-.056h.042a3.987 3.987 0 0 0 3.313-.34l1.498 4.342a.674.674 0 0 1-.894.835l-2.105-.869a.61.61 0 0 0-.763.262L53.09 63.64a.674.674 0 0 1-1.233-.1zM40.412 48.356a2.08 2.08 0 0 0 0-2.483 2.08 2.08 0 0 1 1.047-3.228 2.08 2.08 0 0 0 1.459-2.007 2.074 2.074 0 0 1 2.745-1.994 2.08 2.08 0 0 0 2.361-.769 2.08 2.08 0 0 1 3.392 0 2.08 2.08 0 0 0 2.361.769 2.074 2.074 0 0 1 2.746 1.994 2.08 2.08 0 0 0 1.459 2.007 2.08 2.08 0 0 1 1.047 3.228 2.08 2.08 0 0 0 0 2.483 2.08 2.08 0 0 1-1.047 3.228 2.08 2.08 0 0 0-1.46 2.007 2.074 2.074 0 0 1-2.745 1.994 2.08 2.08 0 0 0-2.361.76 2.08 2.08 0 0 1-3.392 0 2.08 2.08 0 0 0-2.36-.768 2.074 2.074 0 0 1-2.746-1.994 2.08 2.08 0 0 0-1.46-2.008 2.08 2.08 0 0 1-1.046-3.219zm6.009-1.707l1.267 1.234-.301 1.743a.53.53 0 0 0 .768.557l1.565-.835 1.565.835a.53.53 0 0 0 .769-.557l-.301-1.743 1.267-1.234a.53.53 0 0 0-.292-.902l-1.752-.261-.782-1.58a.53.53 0 0 0-.95 0l-.782 1.58-1.749.253a.53.53 0 0 0-.292.902v.008zm1.164 16.891l1.523-4.41a4.032 4.032 0 0 1-2.673-1.646.13.13 0 0 0-.106-.056h-.042c-1.1.375-2.31.251-3.31-.34l-1.502 4.344a.674.674 0 0 0 .894.836l2.105-.87a.61.61 0 0 1 .763.263l1.114 1.982a.674.674 0 0 0 1.234-.103z"/>
    </g>
</svg>
