<svg xmlns="http://www.w3.org/2000/svg" width="20" height="20" viewBox="0 0 20 20">
    <g fill="none" fill-rule="evenodd">
        <rect width="20" height="20" fill="#676470" rx="10"/>
        <path fill="#FFF" fill-rule="nonzero" d="M13.624 3.96a.87.87 0 0 0-1.201.297.887.887 0 0 0 .294 1.212A5.3 5.3 0 0 1 15.25 10c0 2.924-2.35 5.294-5.25 5.294S4.75 12.924 4.75 10a5.3 5.3 0 0 1 2.603-4.573.886.886 0 0 0 .313-1.207.871.871 0 0 0-1.197-.316A7.066 7.066 0 0 0 3 10c0 3.898 3.134 7.059 7 7.059s7-3.16 7-7.059a7.067 7.067 0 0 0-3.376-6.04zM10 10a.875.875 0 0 0 .875-.875v-5.25a.875.875 0 1 0-1.75 0v5.25c0 .483.392.875.875.875z"/>
    </g>
</svg>
