<svg xmlns="http://www.w3.org/2000/svg" width="158" height="25" viewBox="0 0 158 25">
    <g fill="none" fill-rule="evenodd">
        <rect width="25" height="25" fill="#777A8B" rx="4"/>
        <text fill="#75788A" font-family="Montserrat-Regular, Montserrat" font-size="14">
            <tspan x="33" y="17">RegEx Supported</tspan>
        </text>
        <path fill="#F6F6F6" d="M7.086 6.5c-.531.835-.946 1.783-1.245 2.845a12.185 12.185 0 0 0-.448 3.315c0 1.148.15 2.252.448 3.315.3 1.062.714 2.01 1.245 2.845H5.407c-.569-.816-1.002-1.752-1.301-2.81a12.268 12.268 0 0 1-.448-3.35c0-1.176.149-2.293.448-3.35.299-1.058.732-1.994 1.301-2.81h1.68zm2.618 8.635c.284 0 .52.095.704.285.185.19.277.431.277.725 0 .304-.092.553-.277.747a.93.93 0 0 1-.704.292.903.903 0 0 1-.69-.299 1.046 1.046 0 0 1-.278-.74c0-.294.093-.535.278-.725a.925.925 0 0 1 .69-.285zm4.51-8.322h.967l-.014 1.423 1.237-.726.484.882-1.28.697 1.28.697-.484.897-1.252-.74.029 1.422h-.967l.028-1.436-1.252.725-.47-.868 1.253-.697-1.252-.697.47-.896 1.237.74-.014-1.423zm5.719-.313c.569.816 1.002 1.752 1.301 2.81.299 1.057.448 2.174.448 3.35 0 1.176-.149 2.293-.448 3.35-.299 1.058-.732 1.994-1.301 2.81h-1.68c.532-.835.947-1.783 1.246-2.845.298-1.063.448-2.167.448-3.315 0-1.148-.15-2.252-.448-3.315-.3-1.062-.714-2.01-1.245-2.845h1.679z"/>
    </g>
</svg>
